<svg width="286" height="92" viewBox="0 0 286 92" fill="none" xmlns="http://www.w3.org/2000/svg">
<defs>
<linearGradient id="face" x1="0" y1="6" x2="0" y2="64" gradientUnits="userSpaceOnUse">
<stop stop-color="#8CE055"/><stop offset="1" stop-color="#4FAF24"/>
</linearGradient>
<linearGradient id="gloss" x1="0" y1="9" x2="0" y2="36" gradientUnits="userSpaceOnUse">
<stop stop-color="#ffffff" stop-opacity="0.55"/><stop offset="1" stop-color="#ffffff" stop-opacity="0"/>
</linearGradient>
<filter id="sh" x="0" y="0" width="286" height="92" filterUnits="userSpaceOnUse" color-interpolation-filters="sRGB">
<feDropShadow dx="0" dy="3" stdDeviation="3.5" flood-color="#000000" flood-opacity="0.28"/>
</filter>
</defs>
<g filter="url(#sh)">
<rect x="4" y="2" width="278" height="76" rx="24" fill="#2C7A16"/>
<rect x="9" y="6" width="268" height="58" rx="19" fill="url(#face)"/>
<rect x="15" y="9" width="256" height="25" rx="12" fill="url(#gloss)"/>
<path d="M54.34 32.65C53.8 31.61 53.05 30.83 52.09 30.31C51.13 29.77 50.02 29.5 48.76 29.5C47.38 29.5 46.15 29.81 45.07 30.43C43.99 31.05 43.14 31.93 42.52 33.07C41.92 34.21 41.62 35.53 41.62 37.03C41.62 38.53 41.92 39.86 42.52 41.02C43.14 42.16 43.99 43.04 45.07 43.66C46.15 44.28 47.38 44.59 48.76 44.59C50.62 44.59 52.13 44.07 53.29 43.03C54.45 41.99 55.16 40.58 55.42 38.8H47.59V36.07H59.08V38.74C58.86 40.36 58.28 41.85 57.34 43.21C56.42 44.57 55.21 45.66 53.71 46.48C52.23 47.28 50.58 47.68 48.76 47.68C46.8 47.68 45.01 47.23 43.39 46.33C41.77 45.41 40.48 44.14 39.52 42.52C38.58 40.9 38.11 39.07 38.11 37.03C38.11 34.99 38.58 33.16 39.52 31.54C40.48 29.92 41.77 28.66 43.39 27.76C45.03 26.84 46.82 26.38 48.76 26.38C50.98 26.38 52.95 26.93 54.67 28.03C56.41 29.11 57.67 30.65 58.45 32.65H54.34ZM77.6031 38.83C77.6031 39.45 77.5631 40.01 77.4831 40.51H64.8531C64.9531 41.83 65.4431 42.89 66.3231 43.69C67.2031 44.49 68.2831 44.89 69.5631 44.89C71.4031 44.89 72.7031 44.12 73.4631 42.58H77.1531C76.6531 44.1 75.7431 45.35 74.4231 46.33C73.1231 47.29 71.5031 47.77 69.5631 47.77C67.9831 47.77 66.5631 47.42 65.3031 46.72C64.0631 46 63.0831 45 62.3631 43.72C61.6631 42.42 61.3131 40.92 61.3131 39.22C61.3131 37.52 61.6531 36.03 62.3331 34.75C63.0331 33.45 64.0031 32.45 65.2431 31.75C66.5031 31.05 67.9431 30.7 69.5631 30.7C71.1231 30.7 72.5131 31.04 73.7331 31.72C74.9531 32.4 75.9031 33.36 76.5831 34.6C77.2631 35.82 77.6031 37.23 77.6031 38.83ZM74.0331 37.75C74.0131 36.49 73.5631 35.48 72.6831 34.72C71.8031 33.96 70.7131 33.58 69.4131 33.58C68.2331 33.58 67.2231 33.96 66.3831 34.72C65.5431 35.46 65.0431 36.47 64.8831 37.75H74.0331ZM84.9588 33.76V42.91C84.9588 43.53 85.0988 43.98 85.3788 44.26C85.6788 44.52 86.1788 44.65 86.8788 44.65H88.9788V47.5H86.2788C84.7388 47.5 83.5588 47.14 82.7388 46.42C81.9188 45.7 81.5088 44.53 81.5088 42.91V33.76H79.5588V30.97H81.5088V26.86H84.9588V30.97H88.9788V33.76H84.9588ZM106.794 47.71C105.394 47.71 104.134 47.47 103.014 46.99C101.894 46.49 101.014 45.79 100.374 44.89C99.7338 43.99 99.4138 42.94 99.4138 41.74H103.074C103.154 42.64 103.504 43.38 104.124 43.96C104.764 44.54 105.654 44.83 106.794 44.83C107.974 44.83 108.894 44.55 109.554 43.99C110.214 43.41 110.544 42.67 110.544 41.77C110.544 41.07 110.334 40.5 109.914 40.06C109.514 39.62 109.004 39.28 108.384 39.04C107.784 38.8 106.944 38.54 105.864 38.26C104.504 37.9 103.394 37.54 102.534 37.18C101.694 36.8 100.974 36.22 100.374 35.44C99.7738 34.66 99.4738 33.62 99.4738 32.32C99.4738 31.12 99.7738 30.07 100.374 29.17C100.974 28.27 101.814 27.58 102.894 27.1C103.974 26.62 105.224 26.38 106.644 26.38C108.664 26.38 110.314 26.89 111.594 27.91C112.894 28.91 113.614 30.29 113.754 32.05H109.974C109.914 31.29 109.554 30.64 108.894 30.1C108.234 29.56 107.364 29.29 106.284 29.29C105.304 29.29 104.504 29.54 103.884 30.04C103.264 30.54 102.954 31.26 102.954 32.2C102.954 32.84 103.144 33.37 103.524 33.79C103.924 34.19 104.424 34.51 105.024 34.75C105.624 34.99 106.444 35.25 107.484 35.53C108.864 35.91 109.984 36.29 110.844 36.67C111.724 37.05 112.464 37.64 113.064 38.44C113.684 39.22 113.994 40.27 113.994 41.59C113.994 42.65 113.704 43.65 113.124 44.59C112.564 45.53 111.734 46.29 110.634 46.87C109.554 47.43 108.274 47.71 106.794 47.71ZM122.019 33.76V42.91C122.019 43.53 122.159 43.98 122.439 44.26C122.739 44.52 123.239 44.65 123.939 44.65H126.039V47.5H123.339C121.799 47.5 120.619 47.14 119.799 46.42C118.979 45.7 118.569 44.53 118.569 42.91V33.76H116.619V30.97H118.569V26.86H122.019V30.97H126.039V33.76H122.019ZM128.051 39.16C128.051 37.5 128.391 36.03 129.071 34.75C129.771 33.47 130.711 32.48 131.891 31.78C133.091 31.06 134.411 30.7 135.851 30.7C137.151 30.7 138.281 30.96 139.241 31.48C140.221 31.98 141.001 32.61 141.581 33.37V30.97H145.031V47.5H141.581V45.04C141.001 45.82 140.211 46.47 139.211 46.99C138.211 47.51 137.071 47.77 135.791 47.77C134.371 47.77 133.071 47.41 131.891 46.69C130.711 45.95 129.771 44.93 129.071 43.63C128.391 42.31 128.051 40.82 128.051 39.16ZM141.581 39.22C141.581 38.08 141.341 37.09 140.861 36.25C140.401 35.41 139.791 34.77 139.031 34.33C138.271 33.89 137.451 33.67 136.571 33.67C135.691 33.67 134.871 33.89 134.111 34.33C133.351 34.75 132.731 35.38 132.251 36.22C131.791 37.04 131.561 38.02 131.561 39.16C131.561 40.3 131.791 41.3 132.251 42.16C132.731 43.02 133.351 43.68 134.111 44.14C134.891 44.58 135.711 44.8 136.571 44.8C137.451 44.8 138.271 44.58 139.031 44.14C139.791 43.7 140.401 43.06 140.861 42.22C141.341 41.36 141.581 40.36 141.581 39.22ZM152.943 33.37C153.443 32.53 154.103 31.88 154.923 31.42C155.763 30.94 156.753 30.7 157.893 30.7V34.24H157.023C155.683 34.24 154.663 34.58 153.963 35.26C153.283 35.94 152.943 37.12 152.943 38.8V47.5H149.523V30.97H152.943V33.37ZM165.027 33.76V42.91C165.027 43.53 165.167 43.98 165.447 44.26C165.747 44.52 166.247 44.65 166.947 44.65H169.047V47.5H166.347C164.807 47.5 163.627 47.14 162.807 46.42C161.987 45.7 161.577 44.53 161.577 42.91V33.76H159.627V30.97H161.577V26.86H165.027V30.97H169.047V33.76H165.027ZM187.349 38.83C187.349 39.45 187.309 40.01 187.229 40.51H174.599C174.699 41.83 175.189 42.89 176.069 43.69C176.949 44.49 178.029 44.89 179.309 44.89C181.149 44.89 182.449 44.12 183.209 42.58H186.899C186.399 44.1 185.489 45.35 184.169 46.33C182.869 47.29 181.249 47.77 179.309 47.77C177.729 47.77 176.309 47.42 175.049 46.72C173.809 46 172.829 45 172.109 43.72C171.409 42.42 171.059 40.92 171.059 39.22C171.059 37.52 171.399 36.03 172.079 34.75C172.779 33.45 173.749 32.45 174.989 31.75C176.249 31.05 177.689 30.7 179.309 30.7C180.869 30.7 182.259 31.04 183.479 31.72C184.699 32.4 185.649 33.36 186.329 34.6C187.009 35.82 187.349 37.23 187.349 38.83ZM183.779 37.75C183.759 36.49 183.309 35.48 182.429 34.72C181.549 33.96 180.459 33.58 179.159 33.58C177.979 33.58 176.969 33.96 176.129 34.72C175.289 35.46 174.789 36.47 174.629 37.75H183.779ZM189.575 39.16C189.575 37.5 189.915 36.03 190.595 34.75C191.295 33.47 192.235 32.48 193.415 31.78C194.615 31.06 195.945 30.7 197.405 30.7C198.485 30.7 199.545 30.94 200.585 31.42C201.645 31.88 202.485 32.5 203.105 33.28V25.3H206.555V47.5H203.105V45.01C202.545 45.81 201.765 46.47 200.765 46.99C199.785 47.51 198.655 47.77 197.375 47.77C195.935 47.77 194.615 47.41 193.415 46.69C192.235 45.95 191.295 44.93 190.595 43.63C189.915 42.31 189.575 40.82 189.575 39.16ZM203.105 39.22C203.105 38.08 202.865 37.09 202.385 36.25C201.925 35.41 201.315 34.77 200.555 34.33C199.795 33.89 198.975 33.67 198.095 33.67C197.215 33.67 196.395 33.89 195.635 34.33C194.875 34.75 194.255 35.38 193.775 36.22C193.315 37.04 193.085 38.02 193.085 39.16C193.085 40.3 193.315 41.3 193.775 42.16C194.255 43.02 194.875 43.68 195.635 44.14C196.415 44.58 197.235 44.8 198.095 44.8C198.975 44.8 199.795 44.58 200.555 44.14C201.315 43.7 201.925 43.06 202.385 42.22C202.865 41.36 203.105 40.36 203.105 39.22Z" fill="#ffffff" stroke="#2C7A16" stroke-width="2" stroke-linejoin="round" paint-order="stroke"/>
<path d="M240.061 38.0612L230.061 48.0612C229.779 48.343 229.397 48.5013 228.999 48.5013C228.6 48.5013 228.218 48.343 227.936 48.0612C227.654 47.7794 227.496 47.3972 227.496 46.9987C227.496 46.6002 227.654 46.218 227.936 45.9362L236.875 36.9999L227.939 28.0612C227.799 27.9217 227.688 27.756 227.613 27.5737C227.537 27.3914 227.499 27.196 227.499 26.9987C227.499 26.8014 227.537 26.606 227.613 26.4237C227.688 26.2414 227.799 26.0757 227.939 25.9362C228.078 25.7967 228.244 25.686 228.426 25.6105C228.608 25.535 228.804 25.4961 229.001 25.4961C229.199 25.4961 229.394 25.535 229.576 25.6105C229.759 25.686 229.924 25.7967 230.064 25.9362L240.064 35.9362C240.203 36.0757 240.314 36.2414 240.39 36.4239C240.465 36.6063 240.504 36.8018 240.504 36.9992C240.503 37.1966 240.464 37.3921 240.388 37.5743C240.312 37.7565 240.201 37.922 240.061 38.0612Z" fill="#ffffff" stroke="#2C7A16" stroke-width="2" stroke-linejoin="round" paint-order="stroke"/>
</g>
</svg>
