<svg width="270" height="92" viewBox="0 0 270 92" fill="none" xmlns="http://www.w3.org/2000/svg">
<defs>
<linearGradient id="face" x1="0" y1="6" x2="0" y2="64" gradientUnits="userSpaceOnUse">
<stop stop-color="#FFC25A"/><stop offset="1" stop-color="#F47C16"/>
</linearGradient>
<linearGradient id="gloss" x1="0" y1="9" x2="0" y2="36" gradientUnits="userSpaceOnUse">
<stop stop-color="#ffffff" stop-opacity="0.55"/><stop offset="1" stop-color="#ffffff" stop-opacity="0"/>
</linearGradient>
<filter id="sh" x="0" y="0" width="270" height="92" filterUnits="userSpaceOnUse" color-interpolation-filters="sRGB">
<feDropShadow dx="0" dy="3" stdDeviation="3.5" flood-color="#000000" flood-opacity="0.28"/>
</filter>
</defs>
<g filter="url(#sh)">
<rect x="4" y="2" width="262" height="76" rx="24" fill="#B5500D"/>
<rect x="9" y="6" width="252" height="58" rx="19" fill="url(#face)"/>
<rect x="15" y="9" width="240" height="25" rx="12" fill="url(#gloss)"/>
<path d="M92.4387 38.0624L101.439 47.0624C101.721 47.3442 102.103 47.5025 102.501 47.5025C102.9 47.5025 103.282 47.3442 103.564 47.0624C103.846 46.7807 104.004 46.3985 104.004 45.9999C104.004 45.6014 103.846 45.2192 103.564 44.9374L97.125 38.5012H115.5C115.898 38.5012 116.279 38.3432 116.561 38.0619C116.842 37.7806 117 37.399 117 37.0012C117 36.6034 116.842 36.2218 116.561 35.9405C116.279 35.6592 115.898 35.5012 115.5 35.5012H97.125L103.561 29.0612C103.843 28.7794 104.001 28.3972 104.001 27.9987C104.001 27.6002 103.843 27.218 103.561 26.9362C103.279 26.6544 102.897 26.4961 102.499 26.4961C102.1 26.4961 101.718 26.6544 101.436 26.9362L92.4363 35.9362C92.2964 36.0757 92.1855 36.2415 92.1099 36.4241C92.0343 36.6066 91.9955 36.8023 91.9957 36.9998C91.9959 37.1974 92.0352 37.393 92.1112 37.5753C92.1872 37.7577 92.2986 37.9232 92.4387 38.0624Z" fill="#ffffff" stroke="#B5500D" stroke-width="2" stroke-linejoin="round" paint-order="stroke"/>
<path d="M134.17 44.74H141.22V47.5H130.75V26.65H134.17V44.74ZM159.23 38.83C159.23 39.45 159.19 40.01 159.11 40.51H146.48C146.58 41.83 147.07 42.89 147.95 43.69C148.83 44.49 149.91 44.89 151.19 44.89C153.03 44.89 154.33 44.12 155.09 42.58H158.78C158.28 44.1 157.37 45.35 156.05 46.33C154.75 47.29 153.13 47.77 151.19 47.77C149.61 47.77 148.19 47.42 146.93 46.72C145.69 46 144.71 45 143.99 43.72C143.29 42.42 142.94 40.92 142.94 39.22C142.94 37.52 143.28 36.03 143.96 34.75C144.66 33.45 145.63 32.45 146.87 31.75C148.13 31.05 149.57 30.7 151.19 30.7C152.75 30.7 154.14 31.04 155.36 31.72C156.58 32.4 157.53 33.36 158.21 34.6C158.89 35.82 159.23 37.23 159.23 38.83ZM155.66 37.75C155.64 36.49 155.19 35.48 154.31 34.72C153.43 33.96 152.34 33.58 151.04 33.58C149.86 33.58 148.85 33.96 148.01 34.72C147.17 35.46 146.67 36.47 146.51 37.75H155.66ZM169.526 33.76H166.466V47.5H163.016V33.76H161.066V30.97H163.016V29.8C163.016 27.9 163.516 26.52 164.516 25.66C165.536 24.78 167.126 24.34 169.286 24.34V27.19C168.246 27.19 167.516 27.39 167.096 27.79C166.676 28.17 166.466 28.84 166.466 29.8V30.97H169.526V33.76ZM176.547 33.76V42.91C176.547 43.53 176.687 43.98 176.967 44.26C177.267 44.52 177.767 44.65 178.467 44.65H180.567V47.5H177.867C176.327 47.5 175.147 47.14 174.327 46.42C173.507 45.7 173.097 44.53 173.097 42.91V33.76H171.147V30.97H173.097V26.86H176.547V30.97H180.567V33.76H176.547Z" fill="#ffffff" stroke="#B5500D" stroke-width="2" stroke-linejoin="round" paint-order="stroke"/>
</g>
</svg>
