<svg width="181" height="92" viewBox="0 0 181 92" fill="none" xmlns="http://www.w3.org/2000/svg">
<defs>
<linearGradient id="face" x1="0" y1="6" x2="0" y2="64" gradientUnits="userSpaceOnUse">
<stop stop-color="#5FC8F5"/><stop offset="1" stop-color="#1E97DD"/>
</linearGradient>
<linearGradient id="gloss" x1="0" y1="9" x2="0" y2="36" gradientUnits="userSpaceOnUse">
<stop stop-color="#ffffff" stop-opacity="0.55"/><stop offset="1" stop-color="#ffffff" stop-opacity="0"/>
</linearGradient>
<filter id="sh" x="0" y="0" width="181" height="92" filterUnits="userSpaceOnUse" color-interpolation-filters="sRGB">
<feDropShadow dx="0" dy="3" stdDeviation="3.5" flood-color="#000000" flood-opacity="0.28"/>
</filter>
</defs>
<g filter="url(#sh)">
<rect x="4" y="2" width="173" height="76" rx="24" fill="#135E97"/>
<rect x="9" y="6" width="163" height="58" rx="19" fill="url(#face)"/>
<rect x="15" y="9" width="151" height="25" rx="12" fill="url(#gloss)"/>
<path d="M56.38 47.5H52.96L42.67 31.93V47.5H39.25V26.62H42.67L52.96 42.16V26.62H56.38V47.5ZM76.0211 38.83C76.0211 39.45 75.9811 40.01 75.9011 40.51H63.2711C63.3711 41.83 63.8611 42.89 64.7411 43.69C65.6211 44.49 66.7011 44.89 67.9811 44.89C69.8211 44.89 71.1211 44.12 71.8811 42.58H75.5711C75.0711 44.1 74.1611 45.35 72.8411 46.33C71.5411 47.29 69.9211 47.77 67.9811 47.77C66.4011 47.77 64.9811 47.42 63.7211 46.72C62.4811 46 61.5011 45 60.7811 43.72C60.0811 42.42 59.7311 40.92 59.7311 39.22C59.7311 37.52 60.0711 36.03 60.7511 34.75C61.4511 33.45 62.4211 32.45 63.6611 31.75C64.9211 31.05 66.3611 30.7 67.9811 30.7C69.5411 30.7 70.9311 31.04 72.1511 31.72C73.3711 32.4 74.3211 33.36 75.0011 34.6C75.6811 35.82 76.0211 37.23 76.0211 38.83ZM72.4511 37.75C72.4311 36.49 71.9811 35.48 71.1011 34.72C70.2211 33.96 69.1311 33.58 67.8311 33.58C66.6511 33.58 65.6411 33.96 64.8011 34.72C63.9611 35.46 63.4611 36.47 63.3011 37.75H72.4511ZM86.4667 39.13L91.8067 47.5H87.9367L84.3667 41.89L81.0067 47.5H77.4367L82.7767 39.37L77.4367 30.97H81.3067L84.8767 36.58L88.2367 30.97H91.8067L86.4667 39.13ZM98.3474 33.76V42.91C98.3474 43.53 98.4874 43.98 98.7674 44.26C99.0674 44.52 99.5674 44.65 100.267 44.65H102.367V47.5H99.6674C98.1274 47.5 96.9474 47.14 96.1274 46.42C95.3074 45.7 94.8974 44.53 94.8974 42.91V33.76H92.9474V30.97H94.8974V26.86H98.3474V30.97H102.367V33.76H98.3474Z" fill="#ffffff" stroke="#135E97" stroke-width="2" stroke-linejoin="round" paint-order="stroke"/>
<path d="M135.061 38.0612L125.061 48.0612C124.779 48.343 124.397 48.5013 123.999 48.5013C123.6 48.5013 123.218 48.343 122.936 48.0612C122.654 47.7794 122.496 47.3972 122.496 46.9987C122.496 46.6002 122.654 46.218 122.936 45.9362L131.875 36.9999L122.939 28.0612C122.799 27.9217 122.688 27.756 122.613 27.5737C122.537 27.3914 122.499 27.196 122.499 26.9987C122.499 26.8014 122.537 26.606 122.613 26.4237C122.688 26.2414 122.799 26.0757 122.939 25.9362C123.078 25.7967 123.244 25.686 123.426 25.6105C123.608 25.535 123.804 25.4961 124.001 25.4961C124.199 25.4961 124.394 25.535 124.576 25.6105C124.759 25.686 124.924 25.7967 125.064 25.9362L135.064 35.9362C135.203 36.0757 135.314 36.2414 135.39 36.4239C135.465 36.6063 135.504 36.8018 135.504 36.9992C135.503 37.1966 135.464 37.3921 135.388 37.5743C135.312 37.7565 135.201 37.922 135.061 38.0612Z" fill="#ffffff" stroke="#135E97" stroke-width="2" stroke-linejoin="round" paint-order="stroke"/>
</g>
</svg>
