<svg width="270" height="92" viewBox="0 0 270 92" fill="none" xmlns="http://www.w3.org/2000/svg">
<defs>
<linearGradient id="face" x1="0" y1="6" x2="0" y2="64" gradientUnits="userSpaceOnUse">
<stop stop-color="#8CE055"/><stop offset="1" stop-color="#4FAF24"/>
</linearGradient>
<linearGradient id="gloss" x1="0" y1="9" x2="0" y2="36" gradientUnits="userSpaceOnUse">
<stop stop-color="#ffffff" stop-opacity="0.55"/><stop offset="1" stop-color="#ffffff" stop-opacity="0"/>
</linearGradient>
<filter id="sh" x="0" y="0" width="270" height="92" filterUnits="userSpaceOnUse" color-interpolation-filters="sRGB">
<feDropShadow dx="0" dy="3" stdDeviation="3.5" flood-color="#000000" flood-opacity="0.28"/>
</filter>
</defs>
<g filter="url(#sh)">
<rect x="4" y="2" width="262" height="76" rx="24" fill="#2C7A16"/>
<rect x="9" y="6" width="252" height="58" rx="19" fill="url(#face)"/>
<rect x="15" y="9" width="240" height="25" rx="12" fill="url(#gloss)"/>
<path d="M89.08 47.5L84.28 39.16H81.67V47.5H78.25V26.65H85.45C87.05 26.65 88.4 26.93 89.5 27.49C90.62 28.05 91.45 28.8 91.99 29.74C92.55 30.68 92.83 31.73 92.83 32.89C92.83 34.25 92.43 35.49 91.63 36.61C90.85 37.71 89.64 38.46 88 38.86L93.16 47.5H89.08ZM81.67 36.43H85.45C86.73 36.43 87.69 36.11 88.33 35.47C88.99 34.83 89.32 33.97 89.32 32.89C89.32 31.81 89 30.97 88.36 30.37C87.72 29.75 86.75 29.44 85.45 29.44H81.67V36.43ZM98.9451 28.78C98.3251 28.78 97.8051 28.57 97.3851 28.15C96.9651 27.73 96.7551 27.21 96.7551 26.59C96.7551 25.97 96.9651 25.45 97.3851 25.03C97.8051 24.61 98.3251 24.4 98.9451 24.4C99.5451 24.4 100.055 24.61 100.475 25.03C100.895 25.45 101.105 25.97 101.105 26.59C101.105 27.21 100.895 27.73 100.475 28.15C100.055 28.57 99.5451 28.78 98.9451 28.78ZM100.625 30.97V47.5H97.2051V30.97H100.625ZM111.775 30.7C113.055 30.7 114.185 30.96 115.165 31.48C116.165 31.98 116.945 32.61 117.505 33.37V30.97H120.955V47.77C120.955 49.29 120.635 50.64 119.995 51.82C119.355 53.02 118.425 53.96 117.205 54.64C116.005 55.32 114.565 55.66 112.885 55.66C110.645 55.66 108.785 55.13 107.305 54.07C105.825 53.03 104.985 51.61 104.785 49.81H108.175C108.435 50.67 108.985 51.36 109.825 51.88C110.685 52.42 111.705 52.69 112.885 52.69C114.265 52.69 115.375 52.27 116.215 51.43C117.075 50.59 117.505 49.37 117.505 47.77V45.01C116.925 45.79 116.135 46.45 115.135 46.99C114.155 47.51 113.035 47.77 111.775 47.77C110.335 47.77 109.015 47.41 107.815 46.69C106.635 45.95 105.695 44.93 104.995 43.63C104.315 42.31 103.975 40.82 103.975 39.16C103.975 37.5 104.315 36.03 104.995 34.75C105.695 33.47 106.635 32.48 107.815 31.78C109.015 31.06 110.335 30.7 111.775 30.7ZM117.505 39.22C117.505 38.08 117.265 37.09 116.785 36.25C116.325 35.41 115.715 34.77 114.955 34.33C114.195 33.89 113.375 33.67 112.495 33.67C111.615 33.67 110.795 33.89 110.035 34.33C109.275 34.75 108.655 35.38 108.175 36.22C107.715 37.04 107.485 38.02 107.485 39.16C107.485 40.3 107.715 41.3 108.175 42.16C108.655 43.02 109.275 43.68 110.035 44.14C110.815 44.58 111.635 44.8 112.495 44.8C113.375 44.8 114.195 44.58 114.955 44.14C115.715 43.7 116.325 43.06 116.785 42.22C117.265 41.36 117.505 40.36 117.505 39.22ZM133.997 30.7C135.257 30.7 136.377 30.97 137.357 31.51C138.357 32.05 139.137 32.85 139.697 33.91C140.277 34.97 140.567 36.25 140.567 37.75V47.5H137.177V38.26C137.177 36.78 136.807 35.65 136.067 34.87C135.327 34.07 134.317 33.67 133.037 33.67C131.757 33.67 130.737 34.07 129.977 34.87C129.237 35.65 128.867 36.78 128.867 38.26V47.5H125.447V25.3H128.867V32.89C129.447 32.19 130.177 31.65 131.057 31.27C131.957 30.89 132.937 30.7 133.997 30.7ZM148.92 33.76V42.91C148.92 43.53 149.06 43.98 149.34 44.26C149.64 44.52 150.14 44.65 150.84 44.65H152.94V47.5H150.24C148.7 47.5 147.52 47.14 146.7 46.42C145.88 45.7 145.47 44.53 145.47 42.91V33.76H143.52V30.97H145.47V26.86H148.92V30.97H152.94V33.76H148.92Z" fill="#ffffff" stroke="#2C7A16" stroke-width="2" stroke-linejoin="round" paint-order="stroke"/>
<path d="M190.061 38.0624L181.061 47.0624C180.779 47.3442 180.397 47.5025 179.999 47.5025C179.6 47.5025 179.218 47.3442 178.936 47.0624C178.654 46.7807 178.496 46.3985 178.496 45.9999C178.496 45.6014 178.654 45.2192 178.936 44.9374L185.375 38.5012H167C166.602 38.5012 166.221 38.3432 165.939 38.0619C165.658 37.7806 165.5 37.399 165.5 37.0012C165.5 36.6034 165.658 36.2218 165.939 35.9405C166.221 35.6592 166.602 35.5012 167 35.5012H185.375L178.939 29.0612C178.657 28.7794 178.499 28.3972 178.499 27.9987C178.499 27.6002 178.657 27.218 178.939 26.9362C179.221 26.6544 179.603 26.4961 180.001 26.4961C180.4 26.4961 180.782 26.6544 181.064 26.9362L190.064 35.9362C190.204 36.0757 190.315 36.2415 190.39 36.4241C190.466 36.6066 190.505 36.8023 190.504 36.9998C190.504 37.1974 190.465 37.393 190.389 37.5753C190.313 37.7577 190.201 37.9232 190.061 38.0624Z" fill="#ffffff" stroke="#2C7A16" stroke-width="2" stroke-linejoin="round" paint-order="stroke"/>
</g>
</svg>
